<svg xmlns="http://www.w3.org/2000/svg" version="1.1" xmlns:xlink="http://www.w3.org/1999/xlink" xmlns:svgjs="http://svgjs.dev/svgjs" width="1440" height="560" preserveAspectRatio="none" viewBox="0 0 1440 560"><g mask="url(&quot;#SvgjsMask1049&quot;)" fill="none"><rect width="1440" height="560" x="0" y="0" fill="rgba(45, 45, 42, 1)"></rect><path d="M 0,174 C 96,144.6 288,31.4 480,27 C 672,22.6 768,154.8 960,152 C 1152,149.2 1344,40.8 1440,13L1440 560L0 560z" fill="rgba(76, 76, 71, 1)"></path><path d="M 0,357 C 57.6,330.2 172.8,226.6 288,223 C 403.2,219.4 460.8,337.4 576,339 C 691.2,340.6 748.8,237.8 864,231 C 979.2,224.2 1036.8,304.6 1152,305 C 1267.2,305.4 1382.4,247.4 1440,233L1440 560L0 560z" fill="rgba(132, 143, 165, 1)"></path><path d="M 0,393 C 72,413.8 216,492.6 360,497 C 504,501.4 576,411.4 720,415 C 864,418.6 936,513.4 1080,515 C 1224,516.6 1368,441.4 1440,423L1440 560L0 560z" fill="rgba(45, 45, 42, 1)"></path></g><defs><mask id="SvgjsMask1049"><rect width="1440" height="560" fill="#ffffff"></rect></mask></defs></svg>