<svg xmlns="http://www.w3.org/2000/svg" version="1.1" xmlns:xlink="http://www.w3.org/1999/xlink" xmlns:svgjs="http://svgjs.dev/svgjs" width="1440" height="560" preserveAspectRatio="none" viewBox="0 0 1440 560"><g mask="url(&quot;#SvgjsMask1011&quot;)" fill="none"><rect width="1440" height="560" x="0" y="0" fill="rgba(45, 45, 42, 1)"></rect><path d="M 0,76 C 57.6,113 172.8,252.2 288,261 C 403.2,269.8 460.8,134.6 576,120 C 691.2,105.4 748.8,186.6 864,188 C 979.2,189.4 1036.8,131.8 1152,127 C 1267.2,122.2 1382.4,156.6 1440,164L1440 560L0 560z" fill="rgba(76, 76, 71, 1)"></path><path d="M 0,356 C 96,374 288,433.6 480,446 C 672,458.4 768,398.4 960,418 C 1152,437.6 1344,518.8 1440,544L1440 560L0 560z" fill="rgba(45, 45, 42, 1)"></path></g><defs><mask id="SvgjsMask1011"><rect width="1440" height="560" fill="#ffffff"></rect></mask></defs></svg>